PathFileType	4	(X/Y/Z)	D:\TRACE\v60_Jaco2_6-2-23\JustBodyDRS_Motion1_3-v60.trc
DataRate	CameraRate	NumFrames	NumMarkers	Units	OrigDataRate	OrigDataStartFrame	OrigNumFrames
100.00	100.00	      27	9	mm	100.00	3447	      6892
Frame#	Time	front left toe			Front right toe			aft left toe			aft right toe			Arm			FL body			FR body			AL Body			AR Body			
		X1	Y1	Z1	X2	Y2	Z2	X3	Y3	Z3	X4	Y4	Z4	X5	Y5	Z5	X6	Y6	Z6	X7	Y7	Z7	X8	Y8	Z8	X9	Y9	Z9	

3447	34.460	-244.90648	18.58051	-319.38510	136.30249	22.65249	-333.29663	-192.71397	20.62145	313.79749	185.31641	18.90781	269.86682	-166.47665	1215.03296	-449.47031	-135.36150	585.77582	-460.97443	24.63499	586.54065	-472.06766	-69.74906	556.36420	482.57541	87.45815	551.91730	472.55927	
3448	34.470	-244.34373	18.32675	-319.97083	134.47408	29.53798	-329.98300	-188.46753	25.66160	315.13348	185.82341	18.75470	269.89969	-163.91093	1216.21228	-449.00232	-134.02029	585.74396	-461.72781	26.29527	587.02472	-473.04694	-69.26395	556.51239	481.72192	88.13354	552.27893	472.52972	
3449	34.480	-243.84843	17.79040	-319.81503	135.10133	37.77286	-328.72458	-183.35194	33.95578	314.51044	186.50951	18.98651	270.03745	-161.03748	1217.66113	-448.34006	-132.54164	585.38947	-462.41275	27.11078	586.37122	-473.22397	-68.81123	557.03033	481.23315	88.57803	552.62360	471.52972	
3450	34.490	-242.83337	17.38688	-320.17963	136.02313	47.93022	-329.44131	-181.45219	45.04694	313.32059	187.59486	19.10092	270.00583	-159.21269	1218.49658	-447.87573	-131.61192	585.01471	-462.75415	28.81757	586.04565	-473.70081	-67.78218	557.12640	480.74527	89.19731	552.68500	471.33069	
3451	34.500	-242.12819	17.43773	-319.92136	139.29167	59.10241	-331.14548	-182.60629	56.07132	312.06235	188.17072	18.91854	270.15326	-158.55995	1217.85803	-447.66617	-130.67332	584.86896	-462.92215	29.14369	586.00555	-474.37469	-66.96715	556.49500	480.63153	90.55984	552.07092	471.00238	
3452	34.510	-241.63705	17.39531	-319.75226	141.75571	71.09509	-333.61493	-183.83748	67.16566	310.51981	189.04985	18.71532	269.76886	-156.86081	1217.05774	-449.00116	-129.32365	584.64124	-462.51752	30.89000	585.72809	-474.25125	-65.60783	555.95538	480.61145	91.52410	551.25665	471.00076	
3453	34.520	-241.14355	17.20956	-319.85464	144.20610	82.88341	-336.18063	-185.50128	78.63727	308.59848	189.89418	18.80111	269.65195	-156.29706	1216.09363	-449.46011	-128.28780	584.23383	-462.56427	30.64118	584.80719	-473.59418	-64.54893	555.45081	480.41339	93.15695	550.27380	470.94785	
3454	34.530	-240.21567	16.60718	-320.01041	145.88879	94.11058	-338.10199	-186.36418	90.25430	306.72516	190.50153	18.92817	269.60638	-155.56505	1214.69836	-449.93500	-127.93185	583.87549	-462.91556	32.05855	584.38617	-474.33804	-63.15662	555.05786	480.37790	95.33084	550.00348	471.43201	
3455	34.540	-239.83806	16.42176	-319.99405	147.15547	104.99950	-339.47223	-186.28233	101.54230	305.60654	191.02884	18.72704	269.64545	-154.57504	1213.97388	-449.75394	-126.90517	583.21008	-463.02798	33.12458	583.77020	-474.41724	-61.60979	554.93268	480.31006	95.43217	549.97888	471.29453	
3456	34.550	-239.02841	16.27090	-320.08188	147.92401	114.69735	-340.66409	-184.92253	112.01806	304.72327	191.76907	18.60019	269.55875	-153.74925	1213.77942	-449.74960	-125.65276	582.06976	-462.68539	34.31537	582.77307	-474.12857	-60.87891	554.80969	480.40524	97.46997	550.14551	471.35132	
3457	34.560	-238.68405	16.26200	-320.06226	149.74200	123.77681	-341.34540	-182.39958	120.99592	304.15421	192.85536	18.77359	269.70175	-152.52869	1213.78796	-449.69968	-125.54005	581.71100	-463.06009	34.26600	582.02264	-473.92438	-59.40023	555.04242	480.58701	97.86905	550.08875	471.09308	
3458	34.570	-237.96367	16.12842	-320.15756	152.13744	132.29720	-341.79456	-180.97343	130.66502	303.18155	193.39754	18.76412	269.65234	-151.24550	1213.25842	-449.77258	-124.48949	581.12347	-462.70233	35.26870	581.08539	-473.85916	-57.73309	554.89337	480.76291	99.50072	550.27802	471.24020	
3459	34.580	-237.43765	15.89546	-320.12454	154.29346	139.62973	-342.51123	-179.15681	137.77896	302.56616	193.88594	18.72395	269.57159	-150.13731	1212.31079	-450.45422	-123.77494	580.20685	-462.47366	35.98747	580.42383	-473.90451	-56.89503	555.34650	480.82196	100.06108	550.04486	470.78122	
3460	34.590	-236.71970	15.37805	-319.96811	155.93246	145.23289	-343.52548	-178.45309	143.14845	302.09464	194.58409	18.82258	269.65656	-149.06531	1211.38867	-451.44473	-122.46718	579.22601	-461.70200	36.97835	579.96832	-473.98254	-55.62396	555.74731	481.23706	101.93929	550.51923	470.86539	
3461	34.600	-236.20921	15.26992	-319.98672	157.80473	148.18425	-343.64612	-178.02820	146.18921	302.18680	195.16344	18.94731	269.57205	-147.64578	1210.38013	-452.38742	-122.39911	579.10101	-461.77139	37.76339	579.50201	-473.78815	-53.97257	556.24652	481.59250	102.72300	550.72540	471.00845	
3462	34.610	-235.88977	15.34342	-319.89908	158.97353	148.22478	-343.76144	-177.76361	146.98892	302.19110	195.61234	19.05985	269.54932	-147.14339	1210.18237	-452.78241	-121.87920	578.84039	-461.51782	38.31858	579.00226	-473.63062	-52.65658	556.47638	481.72250	104.36037	551.10272	471.19211	
3463	34.620	-235.50562	15.28924	-319.88925	160.37909	145.60519	-343.26666	-176.88284	146.21822	302.74982	195.99704	19.00265	269.32382	-146.68481	1209.89734	-453.08273	-120.67786	578.11450	-461.07077	39.00263	578.55890	-473.53400	-51.11353	557.16400	481.86664	105.70774	551.51031	471.31055	
3464	34.630	-234.89778	15.01038	-319.93231	160.71924	141.07246	-343.18173	-174.87459	143.41235	303.89175	196.24982	19.03142	269.14969	-146.47781	1209.53809	-453.03818	-120.79588	577.87720	-461.29846	39.85697	577.98828	-473.21719	-49.97810	557.85480	482.06973	106.81404	552.00220	471.27060	
3465	34.640	-234.36270	14.74713	-320.02615	161.70937	135.92398	-343.14139	-172.40617	139.23711	304.94684	196.94138	19.19316	268.99887	-146.02110	1209.46423	-452.72488	-119.91074	577.46393	-460.84116	39.97726	577.44177	-472.87012	-48.48334	558.25830	482.15564	107.84145	552.38171	471.33566	
3466	34.650	-233.99017	14.50708	-319.97983	162.20526	130.43622	-343.62985	-171.07217	134.91945	305.34180	197.32213	19.21565	268.91611	-145.34764	1209.15820	-453.02469	-119.34492	577.22601	-460.70764	40.23692	577.10620	-472.96951	-47.85282	558.47662	482.36749	109.95316	552.81262	471.40936	
3467	34.660	-233.68680	14.45664	-320.01425	162.97472	125.98886	-344.94861	-170.03291	130.07663	305.80225	197.91029	19.20246	268.89331	-143.97136	1208.98206	-453.22412	-118.27771	576.81744	-460.37015	40.79961	576.78082	-472.89511	-45.94493	558.41937	482.79196	110.50305	552.83289	471.51343	
3468	34.670	-233.44724	14.46553	-320.02048	164.15654	120.42922	-346.29544	-168.87204	123.68688	305.70435	198.26003	19.28366	268.84573	-142.68987	1208.80835	-453.56400	-117.96310	576.71802	-460.24738	41.09816	576.31732	-472.45630	-44.74753	558.79999	482.90482	112.37025	552.81775	471.42798	
3469	34.680	-233.25128	14.31709	-319.95581	165.22873	114.06718	-347.68951	-167.44238	116.60199	305.65805	198.37991	19.33358	268.69623	-141.91797	1208.48169	-454.23422	-118.31501	576.62134	-460.47275	41.51628	576.21539	-472.78931	-43.26958	558.52002	482.77301	113.19109	552.89618	471.28662	
3470	34.690	-232.98993	14.09599	-320.00095	166.02560	106.99269	-349.09662	-165.82123	108.72263	305.18903	198.59827	19.31904	268.54745	-141.25151	1208.16309	-454.32925	-117.75101	576.34021	-460.38626	42.29657	575.91040	-473.16931	-42.50677	558.69067	482.82809	114.64079	552.90289	471.15662	
3471	34.700	-232.57684	13.72896	-320.11340	166.71342	99.54060	-350.38046	-164.46542	100.81790	304.33084	199.00803	19.32527	268.42538	-140.80873	1207.78833	-454.36618	-117.05587	575.87354	-460.04883	43.43941	575.57452	-473.57095	-40.94520	558.92505	482.85147	115.56071	553.12701	471.05197	
3472	34.710	-232.21942	13.44877	-320.16495	167.28563	91.07129	-351.31281	-161.87906	92.67422	303.26672	199.37607	19.39605	268.42950	-140.49994	1207.60559	-454.40872	-116.46577	575.33502	-460.00623	43.37597	575.13190	-473.70102	-39.65580	559.22974	482.78442	117.04742	553.53693	471.22784	
3473	34.720	-231.95952	13.32298	-320.18503	167.26547	82.98031	-352.02725	-160.60086	85.13644	302.49286	199.63380	19.45050	268.21652	-140.13757	1207.40076	-454.60126	-115.84939	574.90259	-459.85693	43.24209	574.44946	-473.45392	-38.58519	559.43738	482.78543	117.96761	553.79016	470.98523	
